<?xml version="1.0" encoding="UTF-8" standalone="no"?>
<!-- Created with Inkscape (http://www.inkscape.org/) -->

<svg
   width="48"
   height="48"
   viewBox="0 0 12.372639 12.372639"
   version="1.1"
   id="svg1"
   xmlns="http://www.w3.org/2000/svg"
   xmlns:svg="http://www.w3.org/2000/svg">
  <defs
     id="defs1" />
  <g
     id="layer1"
     style="display:inline">
    <path
       style="-inkscape-font-specification:'JetBrains Mono, Normal';fill:#a93721;stroke-width:0.310558"
       d="m 3.0931598,5.8509178 0.708073,-2.720491 h 0.4509308 l 0.7043463,2.720491 H 4.6173802 L 4.4384986,5.127938 H 3.6148978 L 3.4360162,5.8509178 Z M 3.6819784,4.8447088 H 4.3676913 L 4.158996,4.0062013 Q 4.0993688,3.7676925 4.0658285,3.6074444 4.0322882,3.4471963 4.0248348,3.3987492 q -0.00745,0.048447 -0.040994,0.2086952 -0.03354,0.1602481 -0.093167,0.3950302 z m 2.578878,1.043476 q -0.3652166,0 -0.5776385,-0.2124219 Q 5.470796,5.463341 5.470796,5.0683108 v -1.155277 q 0,-0.3950302 0.2124219,-0.6074521 0.2124219,-0.2124219 0.5776385,-0.2124219 0.3652166,0 0.5776385,0.2124219 0.2124219,0.2124219 0.2124219,0.6037254 v 1.1590037 q 0,0.3950302 -0.2124219,0.6074521 Q 6.626073,5.8881848 6.2608564,5.8881848 Z m 0,-0.3018627 q 0.2198753,0 0.335403,-0.1229811 0.1192544,-0.1267078 0.1192544,-0.3577632 v -1.229811 q 0,-0.2310554 -0.1192544,-0.3540365 -0.1155277,-0.1267078 -0.335403,-0.1267078 -0.2161486,0 -0.335403,0.1267078 Q 5.806199,3.6447114 5.806199,3.8757668 v 1.229811 q 0,0.2310554 0.1192544,0.3577632 0.1192544,0.1229811 0.335403,0.1229811 z m 2.1950278,0.3018627 q -0.3763967,0 -0.596272,-0.2086952 Q 7.6397369,5.4670677 7.6397369,5.1055778 h 0.335403 q 0,0.223602 0.1304345,0.3540365 0.1304345,0.1304345 0.3540365,0.1304345 0.223602,0 0.3540365,-0.1304345 0.1304345,-0.1304345 0.1304345,-0.3540365 v -0.186335 q 0,-0.223602 -0.1304345,-0.3540365 Q 8.6832129,4.4347718 8.4596109,4.4347718 H 8.1652016 V 4.1440892 l 0.6670793,-0.708073 h -1.11801 V 3.1304268 H 9.2124043 V 3.4434696 L 8.5565051,4.1403625 q 0.335403,0.026087 0.5291914,0.2347821 0.1937884,0.2049685 0.1937884,0.5440982 v 0.186335 q 0,0.3614899 -0.223602,0.5739118 -0.2198753,0.2086952 -0.5999987,0.2086952 z"
       id="text4"
       aria-label="AO3" />
    <path
       style="-inkscape-font-specification:'JetBrains Mono, Normal';fill:#f9e0a6;stroke-width:0.250631"
       d="M 0.57996745,8.7347317 V 6.3404704 H 1.0161822 l 0.3050223,1.03642 0.3181416,-1.03642 H 2.0755608 V 8.7347317 H 1.7902173 V 7.6031972 q 0,-0.1607106 0.00328,-0.3673387 0.00656,-0.2099078 0.016399,-0.4230955 0.00984,-0.2131876 0.022959,-0.3837377 L 1.4458373,7.6655136 H 1.1900121 l -0.37061852,-1.20697 q 0.0262385,0.2427059 0.0360779,0.5313292 0.009839,0.2886233 0.009839,0.6133244 v 1.1315345 z m 2.01052465,0 V 8.4657873 h 0.639563 V 7.1997806 H 2.6560883 V 6.9308362 H 3.525238 V 8.4657873 H 4.1320028 V 8.7347317 Z M 3.3448484,6.606135 q -0.1082337,0 -0.1705501,-0.055757 -0.062316,-0.055757 -0.062316,-0.1508712 0,-0.098394 0.062316,-0.1541511 0.062316,-0.059037 0.1705501,-0.059037 0.1082338,0 0.1705502,0.059037 0.062316,0.055757 0.062316,0.1541511 0,0.095115 -0.062316,0.1508712 -0.062316,0.055757 -0.1705502,0.055757 z M 4.6469342,8.7347317 V 6.9308362 h 0.2951829 v 0.34438 h 0.00656 q 0.022959,-0.1738299 0.1475914,-0.275504 0.1246328,-0.1016741 0.3345407,-0.1016741 0.2820636,0 0.4329349,0.1705501 0.154151,0.1672703 0.154151,0.4788523 v 0.154151 H 5.7227118 v -0.154151 q 0,-0.3935772 -0.3837377,-0.3935772 -0.1935088,0 -0.2951829,0.1115135 -0.1016741,0.1115136 -0.1016741,0.3214214 v 1.1479335 z m 1.9678874,0 V 6.9308362 h 0.2951829 v 0.34438 h 0.00656 q 0.022959,-0.1738299 0.1475914,-0.275504 0.1246328,-0.1016741 0.3345407,-0.1016741 0.2820636,0 0.4329349,0.1705501 0.154151,0.1672703 0.154151,0.4788523 v 0.154151 H 7.6905992 v -0.154151 q 0,-0.3935772 -0.3837377,-0.3935772 -0.1935088,0 -0.2951829,0.1115135 -0.1016741,0.1115136 -0.1016741,0.3214214 v 1.1479335 z m 2.5844912,0.026238 q -0.3247012,0 -0.51821,-0.190229 Q 8.4908738,8.3805122 8.4908738,8.039412 V 7.6261559 q 0,-0.34438 0.190229,-0.5313292 0.190229,-0.190229 0.51821,-0.190229 0.327981,0 0.5182099,0.190229 0.190229,0.1869492 0.190229,0.5313292 V 8.039412 q 0,0.3411002 -0.1935088,0.5313292 -0.1902289,0.190229 -0.5149301,0.1902285 z m 0,-0.2623848 q 0.1935088,0 0.3017425,-0.1082338 0.1115135,-0.1082332 0.1115135,-0.318141 V 7.5933578 q 0,-0.2099078 -0.1115135,-0.3181416 -0.1082337,-0.1082337 -0.3017425,-0.1082337 -0.190229,0 -0.3017425,0.1082337 Q 8.7860567,7.38345 8.7860567,7.5933578 v 0.4788523 q 0,0.2099078 0.1115136,0.3181415 0.1115135,0.1082338 0.3017425,0.1082333 z M 10.550595,8.7347317 V 6.9308362 h 0.295183 v 0.34438 h 0.0066 q 0.02296,-0.1738299 0.147591,-0.275504 0.124633,-0.1016741 0.334541,-0.1016741 0.282064,0 0.432935,0.1705501 0.154151,0.1672703 0.154151,0.4788523 v 0.154151 h -0.295183 v -0.154151 q 0,-0.3935772 -0.383738,-0.3935772 -0.193508,0 -0.295183,0.1115135 -0.101674,0.1115136 -0.101674,0.3214214 v 1.1479335 z"
       id="text5"
       aria-label="Mirror" />
  </g>
</svg>
